<svg width="1440" height="852" viewBox="0 0 1440 852" fill="none" xmlns="http://www.w3.org/2000/svg">
<g clip-path="url(#clip0_179_464)">
<rect width="1440" height="852" fill="#EEFCFC"/>
<path d="M-30.1174 750.13C23.2789 780.077 56.936 855.876 67.09 890.032C73.4801 894.085 76.7906 894.178 81.8156 887.149C79.0139 872.841 121.453 819.339 137.522 803.135C150.377 790.173 195.82 779.635 218.614 749.184C248.338 709.473 278.06 629.234 237.211 627.134C216.509 626.07 178.744 659.665 159.773 692.575C141.31 724.603 141.462 755.695 134.142 774.246C119.3 811.858 95.7092 829.419 88.9814 836.005C93.9934 773.862 114.998 699.897 131.097 658.018C145.667 620.118 221.083 580.611 232.704 453.951C242 352.623 215.355 317.387 200.87 312.435C103.785 346.563 79.5613 482.563 85.6661 510.231C91.7708 537.898 94.4511 660.383 92.4426 699.26C90.4342 738.137 77.4005 818.976 72.1058 820.013C66.8112 821.05 50.5669 752.128 50.9232 729.381C51.2794 706.633 63.1135 658.273 63.729 636.849C64.3444 615.425 46.6147 588.052 43.0266 555.689C39.4385 523.326 57.346 481.416 37.6063 391.133C21.8145 318.907 -22.0379 291.255 -41.9901 286.458C-119.061 341.407 -105.544 467.268 -82.546 503.997C-64.1478 533.381 -37.4242 572.975 -27.8396 602.631C-18.255 632.286 -22.3786 670.89 27.7113 723.262C43.4635 739.732 50.3255 798.165 54.0711 823.544C46.7195 786 -38.7004 751.811 -66.4316 610.187C-94.1627 468.564 -186.097 439.033 -199.222 432.691C-212.347 426.348 -260.866 406.141 -226.262 544.933C-191.659 683.726 -96.8626 712.696 -30.1174 750.13Z" fill="url(#paint0_linear_179_464)"/>
<path opacity="0.47" d="M1399.94 829.132C1358.95 852.121 1333.11 910.307 1325.32 936.527C1320.41 939.638 1317.87 939.709 1314.02 934.313C1316.17 923.33 1283.59 882.26 1271.25 869.821C1261.38 859.871 1226.5 851.781 1209 828.406C1186.19 797.922 1163.37 736.327 1194.73 734.715C1210.62 733.899 1239.61 759.687 1254.17 784.95C1268.34 809.537 1268.23 833.404 1273.85 847.644C1285.24 876.517 1303.35 889.998 1308.51 895.053C1304.67 847.35 1288.54 790.571 1276.18 758.423C1265 729.329 1207.11 699.002 1198.19 601.773C1191.05 523.989 1211.5 496.941 1222.62 493.139C1297.15 519.338 1315.75 623.737 1311.06 644.976C1306.37 666.214 1304.32 760.239 1305.86 790.082C1307.4 819.926 1317.4 881.981 1321.47 882.777C1325.53 883.573 1338 830.666 1337.73 813.204C1337.46 795.742 1328.37 758.619 1327.9 742.173C1327.43 725.727 1341.04 704.714 1343.79 679.871C1346.55 655.028 1332.8 622.856 1347.95 553.552C1360.07 498.108 1393.74 476.881 1409.05 473.198C1468.22 515.38 1457.84 611.996 1440.19 640.191C1426.06 662.746 1405.55 693.141 1398.19 715.905C1390.83 738.67 1394 768.304 1355.55 808.507C1343.46 821.151 1338.19 866.005 1335.31 885.488C1340.96 856.667 1406.53 830.422 1427.82 721.706C1449.1 612.99 1519.68 590.321 1529.75 585.453C1539.83 580.584 1577.07 565.072 1550.51 671.615C1523.94 778.157 1451.18 800.396 1399.94 829.132Z" fill="url(#paint1_linear_179_464)"/>
<path d="M322.934 730.125C154.34 690.986 65.7798 817.934 55.7438 869.366C211.022 978.541 361.786 953.564 620.233 918.289C626.505 890.691 620.986 835.497 548.731 835.497C458.412 835.497 533.678 779.047 322.934 730.125Z" fill="url(#paint2_linear_179_464)"/>
</g>
<defs>
<linearGradient id="paint0_linear_179_464" x1="-31.7582" y1="284.454" x2="86.8944" y2="890.415" gradientUnits="userSpaceOnUse">
<stop stop-color="#98C71D"/>
<stop offset="1" stop-color="#678E00"/>
</linearGradient>
<linearGradient id="paint1_linear_179_464" x1="1401.2" y1="471.66" x2="1310.12" y2="936.821" gradientUnits="userSpaceOnUse">
<stop stop-color="#98C71D"/>
<stop offset="1" stop-color="#678E00"/>
</linearGradient>
<linearGradient id="paint2_linear_179_464" x1="262.724" y1="722.75" x2="338.95" y2="948.378" gradientUnits="userSpaceOnUse">
<stop stop-color="#ABBDBE"/>
<stop offset="1" stop-color="#546766"/>
</linearGradient>
<clipPath id="clip0_179_464">
<rect width="1440" height="852" fill="white"/>
</clipPath>
</defs>
</svg>
