<svg width="393" height="852" viewBox="0 0 393 852" fill="none" xmlns="http://www.w3.org/2000/svg">
<g clip-path="url(#clip0_179_483)">
<rect width="393" height="852" fill="#EEFCFC"/>
<path d="M-8.55697 796.062C16.5768 810.158 32.4194 845.837 37.1989 861.914C40.2068 863.822 41.765 863.866 44.1303 860.557C42.8116 853.822 62.7877 828.639 70.3515 821.012C76.4025 814.91 97.7928 809.95 108.522 795.616C122.513 776.924 136.504 739.156 117.276 738.167C107.531 737.666 89.7548 753.479 80.8251 768.97C72.1347 784.046 72.2062 798.681 68.7605 807.413C61.7743 825.117 50.6701 833.384 47.5033 836.484C49.8625 807.233 59.7496 772.417 67.3274 752.704C74.1852 734.865 109.684 716.269 115.154 656.649C119.53 608.954 106.988 592.368 100.17 590.037C54.4713 606.101 43.0692 670.117 45.9427 683.14C48.8163 696.163 50.0779 753.818 49.1325 772.117C48.1871 790.417 42.0521 828.468 39.5599 828.956C37.0677 829.444 29.4214 797.003 29.5891 786.295C29.7568 775.588 35.3272 752.824 35.6169 742.74C35.9066 732.656 27.5611 719.771 25.8722 704.538C24.1833 689.304 32.6124 669.577 23.3208 627.081C15.8876 593.084 -4.75392 580.068 -14.1455 577.809C-50.4232 603.674 -44.0605 662.917 -33.2354 680.206C-24.5753 694.037 -11.9963 712.674 -7.48482 726.633C-2.97333 740.592 -4.91431 758.763 18.6632 783.415C26.0778 791.168 29.3078 818.672 31.0709 830.618C27.6104 812.946 -12.5971 796.853 -25.6502 730.19C-38.7034 663.527 -81.9774 649.627 -88.1554 646.642C-94.3334 643.657 -117.171 634.145 -100.883 699.475C-84.5951 764.805 -39.9742 778.442 -8.55697 796.062Z" fill="url(#paint0_linear_179_483)"/>
<path d="M123.626 781.645C44.2677 763.222 2.58222 822.977 -2.14178 847.186C70.9485 898.576 141.913 886.819 263.566 870.214C266.518 857.224 263.92 831.244 229.909 831.244C187.396 831.244 222.824 804.673 123.626 781.645Z" fill="url(#paint1_linear_179_483)"/>
<path opacity="0.47" d="M354.247 163.821C381.525 165.78 409.537 190.029 420.133 201.908C423.487 202.332 424.843 201.74 425.539 197.944C421.687 192.691 428.677 162.996 432.094 153.392C434.828 145.708 451.197 132.812 454.625 116.169C459.095 94.4656 455.863 56.3776 438.949 63.2918C430.377 66.7958 421.494 87.5547 420.078 104.465C418.701 120.922 424.671 133.463 425.237 142.354C426.385 160.381 420.185 171.964 418.716 175.905C408.933 149.829 403.368 115.934 401.918 95.9438C400.606 77.8524 423.587 47.5482 404.215 -5.86708C388.717 -48.5993 371.248 -57.781 364.451 -57.0304C331.687 -24.7823 347.739 34.804 355.465 44.8293C363.191 54.8547 387.552 103.864 394.128 119.963C400.705 136.062 410.798 171.221 408.855 172.647C406.911 174.072 387.246 149.295 383.067 140.031C378.888 130.767 374.482 108.967 370.659 100.188C366.836 91.4099 354.466 83.7126 346.866 71.3108C339.265 58.9089 338.54 38.5618 313.402 5.8134C293.291 -20.3853 270.307 -23.2308 261.329 -21.3788C240.613 15.4832 269.997 63.798 286.275 74.2766C299.297 82.6595 317.626 93.5883 327.136 103.756C336.647 113.924 342.316 130.315 372.52 141.969C382.018 145.634 395.897 167.953 402.235 177.502C392.127 163.72 351.096 166.131 312.97 114.145C274.844 62.1591 232.065 67.6917 225.553 67.6219C219.041 67.5521 195.586 68.6031 235.952 118.139C276.318 167.674 320.148 161.371 354.247 163.821Z" fill="url(#paint2_linear_179_483)"/>
</g>
<defs>
<linearGradient id="paint0_linear_179_483" x1="-9.32933" y1="576.866" x2="46.521" y2="862.095" gradientUnits="userSpaceOnUse">
<stop stop-color="#98C71D"/>
<stop offset="1" stop-color="#678E00"/>
</linearGradient>
<linearGradient id="paint1_linear_179_483" x1="95.2848" y1="778.174" x2="131.165" y2="884.378" gradientUnits="userSpaceOnUse">
<stop stop-color="#ABBDBE"/>
<stop offset="1" stop-color="#546766"/>
</linearGradient>
<linearGradient id="paint2_linear_179_483" x1="265.085" y1="-24.1332" x2="428.213" y2="198.299" gradientUnits="userSpaceOnUse">
<stop stop-color="#98C71D"/>
<stop offset="1" stop-color="#678E00"/>
</linearGradient>
<clipPath id="clip0_179_483">
<rect width="393" height="852" fill="white"/>
</clipPath>
</defs>
</svg>
