<svg width="175" height="149" viewBox="0 0 175 149" fill="none" xmlns="http://www.w3.org/2000/svg">
<mask id="mask0_185_555" style="mask-type:alpha" maskUnits="userSpaceOnUse" x="0" y="0" width="175" height="149">
<path d="M148.467 0C164.391 15.7875 174.254 37.678 174.254 61.873C174.254 109.992 135.246 149 87.127 149C39.008 149 8.86617e-05 109.992 0 61.873C0 37.678 9.86332 15.7875 25.7871 0H148.467Z" fill="white"/>
</mask>
<g mask="url(#mask0_185_555)">
<rect x="-6" y="40" width="186" height="128" fill="#CFF6F6"/>
<ellipse cx="87" cy="39.5" rx="84" ry="7.5" fill="#B1DEDF"/>
<path d="M44.6751 130.9C50.1907 133.993 53.6672 141.823 54.7161 145.351C55.3761 145.77 55.7181 145.779 56.2372 145.053C55.9478 143.575 60.3314 138.049 61.9913 136.375C63.3191 135.036 68.0132 133.947 70.3676 130.802C73.4379 126.7 76.5081 118.412 72.2886 118.195C70.1502 118.085 66.2492 121.555 64.2897 124.955C62.3826 128.263 62.3983 131.475 61.6421 133.391C60.1091 137.276 57.6723 139.09 56.9773 139.77C57.495 133.351 59.6647 125.711 61.3276 121.385C62.8326 117.47 70.6226 113.389 71.823 100.306C72.7833 89.8397 70.031 86.2 68.5348 85.6885C58.5064 89.2138 56.0043 103.262 56.6349 106.12C57.2655 108.977 57.5423 121.629 57.3349 125.645C57.1274 129.661 55.7811 138.011 55.2342 138.118C54.6873 138.225 53.0093 131.106 53.0461 128.757C53.0829 126.407 54.3053 121.412 54.3689 119.199C54.4325 116.986 52.6011 114.158 52.2305 110.815C51.8599 107.472 53.7096 103.143 51.6706 93.8176C50.0394 86.3571 45.5097 83.5008 43.4488 83.0052C35.4878 88.6811 36.8841 101.682 39.2596 105.476C41.16 108.511 43.9204 112.601 44.9104 115.664C45.9005 118.727 45.4745 122.715 50.6485 128.125C52.2756 129.826 52.9844 135.861 53.3713 138.483C52.6119 134.605 43.7886 131.073 40.9241 116.445C38.0596 101.816 28.5633 98.7653 27.2076 98.1102C25.8519 97.4551 20.8402 95.3678 24.4145 109.704C27.9889 124.041 37.7808 127.033 44.6751 130.9Z" fill="url(#paint0_linear_185_555)"/>
<path d="M81.1436 128.833C63.7288 124.791 54.5811 137.904 53.5444 143.216C69.5837 154.493 85.1567 151.913 111.853 148.27C112.501 145.419 111.931 139.718 104.467 139.718C95.1376 139.718 102.912 133.887 81.1436 128.833Z" fill="url(#paint1_linear_185_555)"/>
<path d="M80.3387 53.8804C75.2013 54.5078 72.6218 59.6453 71.9742 62.1357C63.2204 65.4262 54.4846 72.0062 54.2814 81.1566C54.1645 86.4201 61.0672 92.1244 78.1141 94.7165C95.1609 97.3085 99.964 87.2068 101.502 86.073C103.041 84.9392 110.156 89.8571 114.764 87.6807C118.45 85.9396 115.42 79.9774 113.444 77.2139C117.321 72.823 114.374 68.457 112.415 66.8229C113.538 64.4154 114.106 59.2291 110.796 57.5055C107.102 55.5818 105.369 58.9038 102.081 63.5222C98.4393 67.5745 92.6291 65.3082 92.9792 61.4621C93.0173 61.0438 95.4088 57.5055 93.6 55.4881C91.7911 53.4707 86.7605 53.096 80.3387 53.8804Z" fill="url(#paint2_linear_185_555)"/>
<path d="M72.5267 78.1858C72.5267 81.7966 69.5997 84.7236 65.989 84.7236C62.3782 84.7236 59.4512 81.7966 59.4512 78.1858C59.4512 74.5751 62.3782 72.582 65.989 72.582C69.5997 72.582 72.5267 74.5751 72.5267 78.1858Z" fill="white"/>
<path d="M66.9224 78.1863C66.9224 80.7653 64.6915 83.8039 62.6283 83.8039C60.565 83.8039 59.2841 80.7653 59.2841 78.1863C59.2841 75.6072 61.5237 73.0581 63.5869 73.0581C65.6502 73.0581 66.9224 75.6072 66.9224 78.1863Z" fill="url(#paint3_linear_185_555)"/>
<path d="M79.5312 80.9881C80.2784 79.8673 79.8426 76.1626 79.5312 74.4503C80.9322 73.9833 83.9209 73.8899 84.6681 77.2522C85.4153 80.6145 81.5548 81.1437 79.5312 80.9881Z" fill="#FF8748"/>
<path d="M79.6674 72.7464C80.1524 71.8027 79.4812 68.9421 79.0851 67.6297C80.1399 67.1395 82.4706 66.8001 83.3549 69.365C84.2392 71.9299 81.265 72.688 79.6674 72.7464Z" fill="#FF8748"/>
<path d="M79.9995 89.1164C80.6409 88.2712 80.4766 85.3375 80.3143 83.9763C81.4382 83.6766 83.7924 83.747 84.218 86.4265C84.6436 89.1059 81.583 89.3362 79.9995 89.1164Z" fill="#FF8748"/>
<path d="M88.0732 76.4822C88.5581 75.5385 87.887 72.6779 87.4908 71.3656C88.5457 70.8753 90.8764 70.536 91.7606 73.1009C92.6449 75.6657 89.6708 76.4238 88.0732 76.4822Z" fill="#FF8748"/>
<path d="M94.3393 80.0344C94.9139 79.1424 94.5247 76.23 94.2583 74.8853C95.3559 74.5002 97.7086 74.3896 98.3387 77.0284C98.9688 79.6673 95.935 80.1319 94.3393 80.0344Z" fill="#FF8748"/>
<path d="M88.0732 84.888C88.5581 83.9443 87.887 81.0837 87.4908 79.7713C88.5457 79.2811 90.8764 78.9417 91.7606 81.5066C92.6449 84.0715 89.6708 84.8296 88.0732 84.888Z" fill="#FF8748"/>
</g>
<defs>
<linearGradient id="paint0_linear_185_555" x1="44.5057" y1="82.7983" x2="56.7618" y2="145.39" gradientUnits="userSpaceOnUse">
<stop stop-color="#98C71D"/>
<stop offset="1" stop-color="#678E00"/>
</linearGradient>
<linearGradient id="paint1_linear_185_555" x1="74.9243" y1="128.072" x2="82.7979" y2="151.378" gradientUnits="userSpaceOnUse">
<stop stop-color="#ABBDBE"/>
<stop offset="1" stop-color="#546766"/>
</linearGradient>
<linearGradient id="paint2_linear_185_555" x1="57.5831" y1="65.5776" x2="125.296" y2="50.6341" gradientUnits="userSpaceOnUse">
<stop stop-color="#E9773B"/>
<stop offset="1" stop-color="#D34900"/>
</linearGradient>
<linearGradient id="paint3_linear_185_555" x1="69.7243" y1="74.4504" x2="59.4506" y2="78.1863" gradientUnits="userSpaceOnUse">
<stop stop-color="#8C8C8C"/>
<stop offset="1"/>
</linearGradient>
</defs>
</svg>
