<svg width="408" height="340" viewBox="0 0 408 340" fill="none" xmlns="http://www.w3.org/2000/svg">
<path d="M201 0C267.623 0 321.872 7.10614 323.937 15.9761C323.94 15.9907 323.953 16 323.968 16C323.986 16 324 16.0143 324 16.032V32.5C324 33.401 323.462 34.2852 322.425 35.1471C321.567 35.8616 320.495 36.8139 319.847 37.7244C316.983 41.7512 319.869 46.2921 324.522 47.9541C325.71 48.3782 326.87 48.8251 328 49.2959C339.744 54.1872 350.118 60.7441 359.104 68.6797C396.462 94.5786 408 130.876 408 176.192C408 272.073 351.5 339.479 211.5 339.479C208.976 339.479 206.476 339.454 204 339.41C201.524 339.454 199.024 339.479 196.5 339.479C56.5 339.479 0 272.073 0 176.192C8.16097e-05 130.876 11.5376 94.5785 48.8955 68.6797C57.8808 60.7439 68.2556 54.1873 80 49.2959C83.1357 47.9899 85.163 44.7266 83.7875 41.6208C82.7383 39.2519 81.4271 37.1126 80.2463 35.4225C78.8825 33.4706 78 31.1917 78 28.8106V16.032C78 16.0143 78.0143 16 78.032 16C78.047 16 78.0597 15.9907 78.0631 15.9761C80.128 7.10614 134.377 0 201 0Z" fill="#D9D9D9"/>
</svg>
