<svg width="994" height="793" viewBox="0 0 994 793" fill="none" xmlns="http://www.w3.org/2000/svg">
<path d="M266.419 571.163C325.97 604.563 363.507 689.099 374.831 727.192C381.958 731.713 385.65 731.816 391.254 723.977C388.13 708.019 435.46 648.35 453.382 630.279C467.719 615.822 518.4 604.069 543.821 570.108C576.971 525.82 610.12 436.332 564.562 433.99C541.474 432.803 499.355 470.27 478.198 506.974C457.607 542.694 457.776 577.37 449.612 598.059C433.059 640.007 406.749 659.592 399.246 666.937C404.836 597.631 428.262 515.14 446.216 468.434C462.465 426.165 546.575 382.104 559.535 240.844C569.904 127.836 540.187 88.5377 524.032 83.0148C415.756 121.078 388.74 272.754 395.548 303.611C402.357 334.467 405.346 471.072 403.106 514.43C400.866 557.788 386.33 647.946 380.425 649.102C374.52 650.258 356.403 573.392 356.801 548.022C357.198 522.653 370.396 468.718 371.083 444.825C371.769 420.931 351.996 390.402 347.994 354.309C343.992 318.216 363.964 271.474 341.949 170.785C324.337 90.2338 275.429 59.3943 253.177 54.0435C167.222 115.327 182.298 255.696 207.947 296.659C228.466 329.429 258.27 373.588 268.959 406.662C279.648 439.736 275.049 482.789 330.913 541.199C348.481 559.567 356.134 624.735 360.312 653.04C352.112 611.168 256.846 573.038 225.919 415.089C194.991 257.141 92.4587 224.206 77.8208 217.133C63.1829 210.06 9.07158 187.523 47.6641 342.314C86.2566 497.105 191.98 529.415 266.419 571.163Z" fill="url(#paint0_linear_27_241)"/>
<path d="M660.166 548.851C472.137 505.202 373.369 646.783 362.176 704.143C535.354 825.903 703.495 798.047 991.734 758.705C998.73 727.927 992.574 666.37 911.99 666.37C811.26 666.37 895.202 603.413 660.166 548.851Z" fill="url(#paint1_linear_27_241)"/>
<defs>
<linearGradient id="paint0_linear_27_241" x1="264.589" y1="51.8091" x2="396.918" y2="727.619" gradientUnits="userSpaceOnUse">
<stop stop-color="#98C71D"/>
<stop offset="1" stop-color="#678E00"/>
</linearGradient>
<linearGradient id="paint1_linear_27_241" x1="593.015" y1="540.627" x2="678.027" y2="792.263" gradientUnits="userSpaceOnUse">
<stop stop-color="#ABBDBE"/>
<stop offset="1" stop-color="#546766"/>
</linearGradient>
</defs>
</svg>
