<svg width="141" height="117" viewBox="0 0 141 117" fill="none" xmlns="http://www.w3.org/2000/svg">
<path d="M56.2877 17.6386C46.0834 18.8849 40.9599 29.0893 39.6737 34.0357C22.2863 40.5716 4.93478 53.6411 4.53125 71.8161C4.29913 82.2707 18.0096 93.6008 51.8689 98.7494C85.7283 103.898 95.2684 83.8334 98.3241 81.5813C101.38 79.3293 115.513 89.0975 124.664 84.7746C131.986 81.3163 125.967 69.4739 122.043 63.985C129.745 55.2635 123.89 46.5915 119.999 43.3457C122.231 38.5639 123.358 28.2627 116.784 24.839C109.447 21.0181 106.003 27.6164 99.4737 36.7897C92.24 44.8386 80.6994 40.3373 81.3948 32.698C81.4705 31.8671 86.2207 24.839 82.6278 20.8319C79.035 16.8249 69.043 16.0808 56.2877 17.6386Z" fill="url(#paint0_linear_177_449)"/>
<path d="M40.7709 65.9162C40.7709 73.088 34.957 78.9019 27.7852 78.9019C20.6134 78.9019 14.7996 73.088 14.7996 65.9162C14.7996 58.7444 20.6134 54.7856 27.7852 54.7856C34.957 54.7856 40.7709 58.7444 40.7709 65.9162Z" fill="white"/>
<path d="M29.6399 65.9163C29.6399 71.039 25.2089 77.0743 21.1107 77.0743C17.0126 77.0743 14.4684 71.039 14.4684 65.9163C14.4684 60.7936 18.9167 55.7305 23.0148 55.7305C27.113 55.7305 29.6399 60.7936 29.6399 65.9163Z" fill="url(#paint1_linear_177_449)"/>
<path d="M54.6836 71.4816C56.1677 69.2555 55.302 61.8969 54.6836 58.4959C57.4662 57.5684 63.4026 57.3829 64.8866 64.0612C66.3707 70.7396 58.703 71.7908 54.6836 71.4816Z" fill="#FF8748"/>
<path d="M54.9545 55.1118C55.9177 53.2374 54.5847 47.5555 53.7978 44.9488C55.8929 43.975 60.5223 43.301 62.2787 48.3955C64.0351 53.49 58.1277 54.9957 54.9545 55.1118Z" fill="#FF8748"/>
<path d="M55.6134 87.6263C56.8874 85.9475 56.561 80.1205 56.2386 77.4168C58.471 76.8215 63.1471 76.9615 63.9924 82.2835C64.8376 87.6055 58.7586 88.0629 55.6134 87.6263Z" fill="#FF8748"/>
<path d="M71.6508 62.5322C72.614 60.6578 71.281 54.9759 70.4941 52.3692C72.5892 51.3954 77.2186 50.7215 78.975 55.8159C80.7314 60.9104 74.824 62.4161 71.6508 62.5322Z" fill="#FF8748"/>
<path d="M84.0961 69.5872C85.2374 67.8155 84.4644 62.0308 83.9353 59.3598C86.1154 58.5949 90.7884 58.3752 92.04 63.6166C93.2915 68.858 87.2655 69.7809 84.0961 69.5872Z" fill="#FF8748"/>
<path d="M71.6508 79.228C72.614 77.3536 71.281 71.6717 70.4941 69.065C72.5892 68.0912 77.2186 67.4173 78.975 72.5117C80.7314 77.6062 74.824 79.1119 71.6508 79.228Z" fill="#FF8748"/>
<defs>
<linearGradient id="paint0_linear_177_449" x1="11.0893" y1="40.8723" x2="145.584" y2="11.1908" gradientUnits="userSpaceOnUse">
<stop stop-color="#E9773B"/>
<stop offset="1" stop-color="#D34900"/>
</linearGradient>
<linearGradient id="paint1_linear_177_449" x1="35.2052" y1="58.4959" x2="14.7991" y2="65.9163" gradientUnits="userSpaceOnUse">
<stop stop-color="#8C8C8C"/>
<stop offset="1"/>
</linearGradient>
</defs>
</svg>
